<mxfile host="app.diagrams.net" modified="2022-09-08T08:27:58.671Z" agent="5.0 (X11)" etag="V93mWc-BZQ1fw8qbyV4V" version="20.3.0" type="github">
  <diagram id="pEq1C7PcL2HOytmeoLkm" name="Page-1">
    <mxGraphModel dx="3122" dy="758" grid="1" gridSize="10" guides="1" tooltips="1" connect="1" arrows="1" fold="1" page="1" pageScale="1" pageWidth="850" pageHeight="1100" math="0" shadow="0">
      <root>
        <mxCell id="0" />
        <mxCell id="1" parent="0" />
        <mxCell id="KZ6MpGektuIemH4czut3-2" value="" style="verticalLabelPosition=bottom;html=1;verticalAlign=top;align=center;strokeColor=none;fillColor=#00BEF2;shape=mxgraph.azure.database;" parent="1" vertex="1">
          <mxGeometry x="-921" y="510" width="40" height="40" as="geometry" />
        </mxCell>
        <mxCell id="KZ6MpGektuIemH4czut3-3" value="" style="verticalLabelPosition=bottom;html=1;verticalAlign=top;align=center;strokeColor=none;fillColor=#00BEF2;shape=mxgraph.azure.github_code;pointerEvents=1;" parent="1" vertex="1">
          <mxGeometry x="-1044.9999999999998" y="50" width="40" height="40" as="geometry" />
        </mxCell>
        <mxCell id="KZ6MpGektuIemH4czut3-4" value="" style="verticalLabelPosition=bottom;html=1;verticalAlign=top;align=center;strokeColor=none;fillColor=#00BEF2;shape=mxgraph.azure.laptop;pointerEvents=1;" parent="1" vertex="1">
          <mxGeometry x="-1640" y="50" width="50" height="30" as="geometry" />
        </mxCell>
        <mxCell id="4YPgUBxXMGAebWFxgg8F-43" style="edgeStyle=orthogonalEdgeStyle;rounded=0;orthogonalLoop=1;jettySize=auto;html=1;entryX=0;entryY=0.5;entryDx=0;entryDy=0;fontSize=13;fontColor=#000000;" edge="1" parent="1" source="KZ6MpGektuIemH4czut3-5" target="KZ6MpGektuIemH4czut3-29">
          <mxGeometry relative="1" as="geometry" />
        </mxCell>
        <mxCell id="4YPgUBxXMGAebWFxgg8F-44" style="edgeStyle=orthogonalEdgeStyle;rounded=0;orthogonalLoop=1;jettySize=auto;html=1;entryX=0;entryY=0.5;entryDx=0;entryDy=0;fontSize=13;fontColor=#000000;" edge="1" parent="1" source="KZ6MpGektuIemH4czut3-5" target="KZ6MpGektuIemH4czut3-30">
          <mxGeometry relative="1" as="geometry" />
        </mxCell>
        <mxCell id="KZ6MpGektuIemH4czut3-5" value="" style="verticalLabelPosition=bottom;html=1;verticalAlign=top;align=center;strokeColor=none;fillColor=#00BEF2;shape=mxgraph.azure.laptop;pointerEvents=1;" parent="1" vertex="1">
          <mxGeometry x="-1330" y="160" width="100" height="40" as="geometry" />
        </mxCell>
        <mxCell id="KZ6MpGektuIemH4czut3-6" value="" style="verticalLabelPosition=bottom;html=1;verticalAlign=top;align=center;strokeColor=none;fillColor=#00BEF2;shape=mxgraph.azure.cloud;" parent="1" vertex="1">
          <mxGeometry x="-1560" y="80" width="50" height="32.5" as="geometry" />
        </mxCell>
        <mxCell id="KZ6MpGektuIemH4czut3-7" value="" style="verticalLabelPosition=bottom;html=1;verticalAlign=top;align=center;strokeColor=none;fillColor=#00BEF2;shape=mxgraph.azure.azure_website;pointerEvents=1;" parent="1" vertex="1">
          <mxGeometry x="-921" y="350" width="40" height="40" as="geometry" />
        </mxCell>
        <mxCell id="KZ6MpGektuIemH4czut3-8" value="" style="verticalLabelPosition=bottom;html=1;verticalAlign=top;align=center;strokeColor=none;fillColor=#00BEF2;shape=mxgraph.azure.azure_website;pointerEvents=1;" parent="1" vertex="1">
          <mxGeometry x="-1640" y="350" width="40" height="40" as="geometry" />
        </mxCell>
        <mxCell id="KZ6MpGektuIemH4czut3-9" value="" style="verticalLabelPosition=bottom;html=1;verticalAlign=top;align=center;strokeColor=none;fillColor=#00BEF2;shape=mxgraph.azure.database;" parent="1" vertex="1">
          <mxGeometry x="-1639" y="520" width="39" height="40" as="geometry" />
        </mxCell>
        <mxCell id="KZ6MpGektuIemH4czut3-19" value="" style="sketch=0;aspect=fixed;html=1;points=[];align=center;image;fontSize=12;image=img/lib/mscae/Docker.svg;" parent="1" vertex="1">
          <mxGeometry x="-1040" y="135" width="42.68" height="35" as="geometry" />
        </mxCell>
        <mxCell id="KZ6MpGektuIemH4czut3-29" value="&lt;div&gt;Github B10 répo:&lt;/div&gt;&lt;div&gt;&lt;font color=&quot;#0000FF&quot;&gt;https://github.com/Psykali/G3-B10-AZetDocker-KCAB.git&lt;/font&gt;&lt;br&gt;&lt;/div&gt;" style="rounded=1;whiteSpace=wrap;html=1;" parent="1" vertex="1">
          <mxGeometry x="-1050" y="9" width="200" height="51" as="geometry" />
        </mxCell>
        <mxCell id="KZ6MpGektuIemH4czut3-30" value="&lt;div&gt;&lt;font color=&quot;#000000&quot;&gt;Docker B10 répo:&lt;br&gt;&lt;/font&gt;&lt;/div&gt;&lt;div&gt;https://hub.docker.com/r/psykali/stackoverp20kcab&lt;br&gt;&lt;/div&gt;" style="rounded=1;whiteSpace=wrap;html=1;fontColor=#0000FF;" parent="1" vertex="1">
          <mxGeometry x="-1045" y="90" width="190" height="50" as="geometry" />
        </mxCell>
        <mxCell id="4YPgUBxXMGAebWFxgg8F-3" style="edgeStyle=orthogonalEdgeStyle;rounded=0;orthogonalLoop=1;jettySize=auto;html=1;" edge="1" parent="1" source="KZ6MpGektuIemH4czut3-32" target="KZ6MpGektuIemH4czut3-6">
          <mxGeometry relative="1" as="geometry" />
        </mxCell>
        <mxCell id="KZ6MpGektuIemH4czut3-32" value="Client" style="text;html=1;align=center;verticalAlign=middle;resizable=0;points=[];autosize=1;strokeColor=none;fillColor=none;fontColor=#000000;" parent="1" vertex="1">
          <mxGeometry x="-1640" y="50" width="50" height="30" as="geometry" />
        </mxCell>
        <mxCell id="4YPgUBxXMGAebWFxgg8F-33" style="edgeStyle=orthogonalEdgeStyle;rounded=0;orthogonalLoop=1;jettySize=auto;html=1;entryX=0.5;entryY=0;entryDx=0;entryDy=0;fontSize=13;fontColor=#000000;" edge="1" parent="1" source="KZ6MpGektuIemH4czut3-33" target="4YPgUBxXMGAebWFxgg8F-32">
          <mxGeometry relative="1" as="geometry" />
        </mxCell>
        <mxCell id="KZ6MpGektuIemH4czut3-33" value="WAN" style="text;html=1;align=center;verticalAlign=middle;resizable=0;points=[];autosize=1;strokeColor=none;fillColor=none;fontColor=#000000;" parent="1" vertex="1">
          <mxGeometry x="-1560" y="90" width="50" height="30" as="geometry" />
        </mxCell>
        <mxCell id="KZ6MpGektuIemH4czut3-34" value="Admin" style="text;html=1;align=center;verticalAlign=middle;resizable=0;points=[];autosize=1;strokeColor=none;fillColor=none;fontColor=#000000;" parent="1" vertex="1">
          <mxGeometry x="-1310" y="165" width="60" height="30" as="geometry" />
        </mxCell>
        <mxCell id="4YPgUBxXMGAebWFxgg8F-15" value="" style="edgeStyle=orthogonalEdgeStyle;rounded=0;orthogonalLoop=1;jettySize=auto;html=1;fontSize=13;fontColor=#000000;" edge="1" parent="1" source="KZ6MpGektuIemH4czut3-39" target="KZ6MpGektuIemH4czut3-45">
          <mxGeometry relative="1" as="geometry" />
        </mxCell>
        <mxCell id="KZ6MpGektuIemH4czut3-39" value="&lt;div&gt;&lt;font color=&quot;#000000&quot;&gt;BDD: q2a&lt;/font&gt;&lt;/div&gt;&lt;div&gt;&lt;font color=&quot;#000000&quot;&gt;&lt;br&gt;&lt;/font&gt;&lt;/div&gt;&lt;div&gt;brief10-mysql-prod-commun.mysql.database.azure.com&lt;/div&gt;" style="text;html=1;align=center;verticalAlign=middle;resizable=0;points=[];autosize=1;strokeColor=none;fillColor=none;fontColor=#0000FF;" parent="1" vertex="1">
          <mxGeometry x="-1680" y="550" width="320" height="60" as="geometry" />
        </mxCell>
        <mxCell id="KZ6MpGektuIemH4czut3-42" value="&lt;h2 aria-describedby=&quot;fd2c34e4-cf67-463e-bc5a-aa8fd65d632c&quot; id=&quot;fd2c34e4-cf67-463e-bc5a-aa8fd65d632d&quot; class=&quot;fxs-blade-title-titleText msportalfx-tooltip-overflow&quot;&gt;&lt;font color=&quot;#000000&quot;&gt;groupe_3_Brief_10DockerEtAzure&lt;span id=&quot;_weave_e_6381&quot; class=&quot;msportalfx-font-regular&quot;&gt;&lt;/span&gt;&lt;/font&gt;&lt;/h2&gt;&lt;div&gt;&lt;font color=&quot;#000000&quot;&gt;Location: France Central&lt;/font&gt;&lt;/div&gt;&lt;div&gt;&lt;br&gt;&lt;/div&gt;&lt;div&gt;&lt;font color=&quot;#000000&quot;&gt;Présenté par: S.K. - C.DS.M. - B.S. - A.B&lt;/font&gt;&lt;font color=&quot;#000000&quot;&gt;.&lt;/font&gt;&lt;/div&gt;" style="text;html=1;align=center;verticalAlign=middle;resizable=0;points=[];autosize=1;strokeColor=none;fillColor=none;fontColor=#0000FF;" parent="1" vertex="1">
          <mxGeometry x="-1470" y="9" width="310" height="110" as="geometry" />
        </mxCell>
        <mxCell id="KZ6MpGektuIemH4czut3-43" value="" style="aspect=fixed;html=1;points=[];align=center;image;fontSize=12;image=img/lib/azure2/storage/Storage_Accounts_Classic.svg;labelBackgroundColor=none;fontColor=#000000;" parent="1" vertex="1">
          <mxGeometry x="-1638" y="648" width="40" height="32" as="geometry" />
        </mxCell>
        <mxCell id="KZ6MpGektuIemH4czut3-45" value="&lt;h4 style=&quot;font-size: 11px;&quot; aria-describedby=&quot;fd2c34e4-cf67-463e-bc5a-aa8fd65d6380&quot; id=&quot;fd2c34e4-cf67-463e-bc5a-aa8fd65d6381&quot; class=&quot;fxs-blade-title-titleText msportalfx-tooltip-overflow&quot; align=&quot;center&quot;&gt;&lt;font style=&quot;font-size: 11px;&quot;&gt;Storage account:&lt;/font&gt;&lt;/h4&gt;&lt;h4 style=&quot;font-size: 11px;&quot; aria-describedby=&quot;fd2c34e4-cf67-463e-bc5a-aa8fd65d6380&quot; id=&quot;fd2c34e4-cf67-463e-bc5a-aa8fd65d6381&quot; class=&quot;fxs-blade-title-titleText msportalfx-tooltip-overflow&quot; align=&quot;center&quot;&gt;&lt;font style=&quot;font-size: 11px;&quot;&gt;groupe3brief10docke9a9f&lt;span id=&quot;_weave_e_6757&quot; class=&quot;msportalfx-font-regular&quot;&gt;&lt;/span&gt;&lt;/font&gt;&lt;/h4&gt;" style="text;html=1;align=center;verticalAlign=middle;resizable=0;points=[];autosize=1;strokeColor=none;fillColor=none;fontColor=#000000;" parent="1" vertex="1">
          <mxGeometry x="-1600" y="650" width="160" height="80" as="geometry" />
        </mxCell>
        <mxCell id="KZ6MpGektuIemH4czut3-53" value="&lt;font style=&quot;font-size: 13px;&quot;&gt;Azure Appinsights : &lt;br&gt;&lt;/font&gt;&lt;h2 aria-describedby=&quot;de1df355-0142-4c75-ac1e-49ae9c56400b&quot; id=&quot;de1df355-0142-4c75-ac1e-49ae9c56400c&quot; class=&quot;fxs-blade-title-titleText msportalfx-tooltip-overflow&quot;&gt;overstackp20kcab&lt;span id=&quot;_weave_e_51&quot; class=&quot;msportalfx-font-regular&quot;&gt;&lt;/span&gt;&lt;/h2&gt;&lt;h2 style=&quot;font-size: 13px;&quot; aria-describedby=&quot;fd2c34e4-cf67-463e-bc5a-aa8fd65d6435&quot; id=&quot;fd2c34e4-cf67-463e-bc5a-aa8fd65d6436&quot; class=&quot;fxs-blade-title-titleText msportalfx-tooltip-overflow&quot;&gt;&lt;/h2&gt;" style="text;html=1;align=center;verticalAlign=middle;resizable=0;points=[];autosize=1;strokeColor=none;fillColor=none;fontSize=11;fontColor=none;" parent="1" vertex="1">
          <mxGeometry x="-1360" y="480" width="170" height="80" as="geometry" />
        </mxCell>
        <mxCell id="4YPgUBxXMGAebWFxgg8F-13" style="edgeStyle=orthogonalEdgeStyle;rounded=0;orthogonalLoop=1;jettySize=auto;html=1;fontSize=13;fontColor=#000000;" edge="1" parent="1" source="4YPgUBxXMGAebWFxgg8F-8" target="KZ6MpGektuIemH4czut3-39">
          <mxGeometry relative="1" as="geometry" />
        </mxCell>
        <mxCell id="4YPgUBxXMGAebWFxgg8F-30" style="edgeStyle=orthogonalEdgeStyle;rounded=0;orthogonalLoop=1;jettySize=auto;html=1;fontSize=13;fontColor=#000000;" edge="1" parent="1" source="4YPgUBxXMGAebWFxgg8F-8" target="4YPgUBxXMGAebWFxgg8F-25">
          <mxGeometry relative="1" as="geometry" />
        </mxCell>
        <mxCell id="4YPgUBxXMGAebWFxgg8F-8" value="&lt;div style=&quot;font-size: 13px;&quot;&gt;&lt;font color=&quot;#000000&quot;&gt;App Service: &lt;span style=&quot;font-weight: normal; font-size: 13px;&quot;&gt;overstackp20kcab&lt;span style=&quot;&quot; id=&quot;_weave_e_51&quot; class=&quot;msportalfx-font-regular&quot;&gt;&lt;/span&gt;&lt;/span&gt;&lt;/font&gt;&lt;/div&gt;&lt;div&gt;&lt;font color=&quot;#000000&quot;&gt;&lt;br&gt;&lt;/font&gt;&lt;/div&gt;&lt;div&gt;https://overstackp20kcab.azurewebsites.net&lt;/div&gt;" style="text;html=1;align=center;verticalAlign=middle;resizable=0;points=[];autosize=1;strokeColor=none;fillColor=none;fontColor=#0000FF;" vertex="1" parent="1">
          <mxGeometry x="-1620" y="350" width="260" height="60" as="geometry" />
        </mxCell>
        <mxCell id="4YPgUBxXMGAebWFxgg8F-10" value="" style="verticalLabelPosition=bottom;html=1;verticalAlign=top;align=center;strokeColor=none;fillColor=#00BEF2;shape=mxgraph.azure.cloud_services_configuration_file;pointerEvents=1;fontSize=13;fontColor=#000000;" vertex="1" parent="1">
          <mxGeometry x="-1638" y="240" width="38" height="40" as="geometry" />
        </mxCell>
        <mxCell id="4YPgUBxXMGAebWFxgg8F-12" style="edgeStyle=orthogonalEdgeStyle;rounded=0;orthogonalLoop=1;jettySize=auto;html=1;entryX=0.385;entryY=0;entryDx=0;entryDy=0;entryPerimeter=0;fontSize=13;fontColor=#000000;" edge="1" parent="1" source="4YPgUBxXMGAebWFxgg8F-11" target="4YPgUBxXMGAebWFxgg8F-8">
          <mxGeometry relative="1" as="geometry" />
        </mxCell>
        <mxCell id="4YPgUBxXMGAebWFxgg8F-11" value="Linux App plan: overstackp20kcab (P1v2: 3)" style="text;html=1;align=center;verticalAlign=middle;resizable=0;points=[];autosize=1;strokeColor=none;fillColor=none;fontSize=13;fontColor=#000000;" vertex="1" parent="1">
          <mxGeometry x="-1650" y="290" width="280" height="30" as="geometry" />
        </mxCell>
        <mxCell id="4YPgUBxXMGAebWFxgg8F-17" value="" style="verticalLabelPosition=bottom;html=1;verticalAlign=top;align=center;strokeColor=none;fillColor=#00BEF2;shape=mxgraph.azure.cloud_services_configuration_file;pointerEvents=1;fontSize=13;fontColor=#000000;" vertex="1" parent="1">
          <mxGeometry x="-919" y="240" width="38" height="40" as="geometry" />
        </mxCell>
        <mxCell id="4YPgUBxXMGAebWFxgg8F-20" style="edgeStyle=orthogonalEdgeStyle;rounded=0;orthogonalLoop=1;jettySize=auto;html=1;fontSize=13;fontColor=#000000;" edge="1" parent="1" source="4YPgUBxXMGAebWFxgg8F-18" target="4YPgUBxXMGAebWFxgg8F-19">
          <mxGeometry relative="1" as="geometry" />
        </mxCell>
        <mxCell id="4YPgUBxXMGAebWFxgg8F-18" value="Linux App plan: devoverstackp20kcab (F1: Free)" style="text;html=1;align=center;verticalAlign=middle;resizable=0;points=[];autosize=1;strokeColor=none;fillColor=none;fontSize=13;fontColor=#000000;" vertex="1" parent="1">
          <mxGeometry x="-1209" y="290" width="300" height="30" as="geometry" />
        </mxCell>
        <mxCell id="4YPgUBxXMGAebWFxgg8F-24" value="" style="edgeStyle=orthogonalEdgeStyle;rounded=0;orthogonalLoop=1;jettySize=auto;html=1;fontSize=13;fontColor=#000000;" edge="1" parent="1" source="4YPgUBxXMGAebWFxgg8F-19" target="4YPgUBxXMGAebWFxgg8F-22">
          <mxGeometry relative="1" as="geometry" />
        </mxCell>
        <mxCell id="4YPgUBxXMGAebWFxgg8F-31" style="edgeStyle=orthogonalEdgeStyle;rounded=0;orthogonalLoop=1;jettySize=auto;html=1;fontSize=13;fontColor=#000000;" edge="1" parent="1" source="4YPgUBxXMGAebWFxgg8F-19" target="4YPgUBxXMGAebWFxgg8F-25">
          <mxGeometry relative="1" as="geometry" />
        </mxCell>
        <mxCell id="4YPgUBxXMGAebWFxgg8F-19" value="&lt;div style=&quot;font-size: 13px;&quot;&gt;&lt;font color=&quot;#000000&quot;&gt;App Service: &lt;span style=&quot;font-weight: normal; font-size: 13px;&quot;&gt;devoverstackp20kcab&lt;span style=&quot;&quot; id=&quot;_weave_e_51&quot; class=&quot;msportalfx-font-regular&quot;&gt;&lt;/span&gt;&lt;/span&gt;&lt;/font&gt;&lt;/div&gt;&lt;div&gt;&lt;font color=&quot;#000000&quot;&gt;&lt;br&gt;&lt;/font&gt;&lt;/div&gt;&lt;div&gt;https://devoverstackp20kcab.azurewebsites.net&lt;/div&gt;" style="text;html=1;align=center;verticalAlign=middle;resizable=0;points=[];autosize=1;strokeColor=none;fillColor=none;fontColor=#0000FF;" vertex="1" parent="1">
          <mxGeometry x="-1205" y="350" width="270" height="60" as="geometry" />
        </mxCell>
        <mxCell id="4YPgUBxXMGAebWFxgg8F-22" value="&lt;div&gt;&lt;font color=&quot;#000000&quot;&gt;BDD: q2adev&lt;/font&gt;&lt;/div&gt;&lt;div&gt;&lt;font color=&quot;#000000&quot;&gt;&lt;br&gt;&lt;/font&gt;&lt;/div&gt;&lt;div&gt;brief10-mysql-prod-commun.mysql.database.azure.com&lt;/div&gt;" style="text;html=1;align=center;verticalAlign=middle;resizable=0;points=[];autosize=1;strokeColor=none;fillColor=none;fontColor=#0000FF;" vertex="1" parent="1">
          <mxGeometry x="-1209" y="550" width="320" height="60" as="geometry" />
        </mxCell>
        <mxCell id="4YPgUBxXMGAebWFxgg8F-25" value="" style="aspect=fixed;html=1;points=[];align=center;image;fontSize=12;image=img/lib/azure2/devops/Application_Insights.svg;fontColor=#000000;" vertex="1" parent="1">
          <mxGeometry x="-1307" y="417" width="44" height="63" as="geometry" />
        </mxCell>
        <mxCell id="4YPgUBxXMGAebWFxgg8F-47" style="edgeStyle=orthogonalEdgeStyle;rounded=0;orthogonalLoop=1;jettySize=auto;html=1;entryX=0.5;entryY=1;entryDx=0;entryDy=0;entryPerimeter=0;fontSize=13;fontColor=#000000;" edge="1" parent="1" source="4YPgUBxXMGAebWFxgg8F-32" target="KZ6MpGektuIemH4czut3-5">
          <mxGeometry relative="1" as="geometry" />
        </mxCell>
        <mxCell id="4YPgUBxXMGAebWFxgg8F-32" value="&lt;div&gt;&lt;font color=&quot;#000000&quot;&gt;Env Prod&lt;br&gt;&lt;/font&gt;&lt;/div&gt;" style="rounded=1;whiteSpace=wrap;html=1;fontColor=#0000FF;" vertex="1" parent="1">
          <mxGeometry x="-1600" y="200" width="120" height="40" as="geometry" />
        </mxCell>
        <mxCell id="4YPgUBxXMGAebWFxgg8F-46" style="edgeStyle=orthogonalEdgeStyle;rounded=0;orthogonalLoop=1;jettySize=auto;html=1;entryX=0.5;entryY=1;entryDx=0;entryDy=0;entryPerimeter=0;fontSize=13;fontColor=#000000;" edge="1" parent="1" source="4YPgUBxXMGAebWFxgg8F-34" target="KZ6MpGektuIemH4czut3-5">
          <mxGeometry relative="1" as="geometry" />
        </mxCell>
        <mxCell id="4YPgUBxXMGAebWFxgg8F-34" value="&lt;div&gt;&lt;font color=&quot;#000000&quot;&gt;Env Dev&lt;br&gt;&lt;/font&gt;&lt;/div&gt;" style="rounded=1;whiteSpace=wrap;html=1;fontColor=#0000FF;" vertex="1" parent="1">
          <mxGeometry x="-1040" y="200" width="119" height="40" as="geometry" />
        </mxCell>
      </root>
    </mxGraphModel>
  </diagram>
</mxfile>
